<?xml version="1.0" encoding="utf-8"?><!-- Uploaded to: SVG Repo, www.svgrepo.com, Generator: SVG Repo Mixer Tools -->
<svg width="800px" height="800px" viewBox="0 0 48 48" xmlns="http://www.w3.org/2000/svg"><title>Free Medical icons</title><path d="M40,47.5H8a3,3,0,0,1-3-3V4.5a3,3,0,0,1,3-3H40a3,3,0,0,1,3,3v40A3,3,0,0,1,40,47.5Zm-31-4H39V5.5H9v38Z" fill="#2161ff"/><rect x="22" y="10" width="4" height="10" transform="translate(9 39) rotate(-90)" fill="#a6c7ff"/><rect x="22" y="10" width="4" height="10" transform="translate(48 30) rotate(-180)" fill="#a6c7ff"/><path d="M30,29.5H18a2,2,0,0,1,0-4H30A2,2,0,0,1,30,29.5Z" fill="#a6c7ff"/><path d="M30,38.5H18a2,2,0,0,1,0-4H30A2,2,0,0,1,30,38.5Z" fill="#a6c7ff"/><rect width="48" height="48" fill="none"/></svg>